<?xml version="1.0" encoding="UTF-8"?>
<svg width="160" height="25" id="Layer_2" data-name="Layer 2" xmlns="http://www.w3.org/2000/svg" viewBox="0 0 116.39 15.29">
  <defs>
    <style>
      .cls-1 {
        fill: #231f20;
        stroke-width: 0px;
      }
    </style>
  </defs>
  <g id="Layer_1-2" data-name="Layer 1">
    <g>
      <path class="cls-1" d="m9.3,15.03H0V0h1.99v13.25h7.31v1.78Z"/>
      <path class="cls-1" d="m18.31,13.65c-.96,1.09-2.05,1.64-3.25,1.64-2.45,0-3.68-1.34-3.68-4.02v-7.12h1.94v7.03c0,.89.16,1.53.47,1.92s.83.58,1.56.58c1.08,0,2.07-.58,2.96-1.74v-7.79h1.93v10.88h-1.93v-1.38Z"/>
      <path class="cls-1" d="m27.51,15.29c-1.54,0-2.78-.5-3.71-1.49-.93-1-1.39-2.39-1.39-4.2s.46-3.21,1.39-4.2c.93-.99,2.16-1.49,3.71-1.49,1.19,0,2.18.3,2.98.9.8.6,1.27,1.47,1.41,2.6h-1.99c-.03-.65-.27-1.15-.73-1.49-.46-.34-1.02-.51-1.67-.51-.92,0-1.67.35-2.25,1.05-.57.7-.86,1.75-.86,3.13s.29,2.42.86,3.12c.57.7,1.32,1.05,2.25,1.05.65,0,1.2-.17,1.67-.51.46-.34.71-.83.73-1.48h1.99c-.14,1.13-.61,2-1.41,2.6-.8.6-1.79.9-2.98.9Z"/>
      <path class="cls-1" d="m40.49,13.91c-.98.92-2.25,1.37-3.8,1.37-1.08,0-1.97-.29-2.67-.88-.7-.58-1.05-1.34-1.05-2.26,0-2.54,2.19-3.81,6.57-3.81h.94c0-.78-.04-1.34-.12-1.7s-.31-.64-.69-.88-.97-.35-1.79-.35c-1.72,0-2.61.62-2.67,1.85h-1.93c.14-2.24,1.71-3.35,4.7-3.35,1.39,0,2.48.28,3.26.83s1.17,1.64,1.17,3.26v7.03h-1.93v-1.12Zm0-1.74v-2.41h-1.32c-2.8,0-4.2.76-4.2,2.29,0,.55.21.98.62,1.28.41.3.96.45,1.66.45.64,0,1.25-.14,1.85-.43s1.06-.68,1.4-1.17Z"/>
      <path class="cls-1" d="m49.17,15.29c-2.97,0-4.53-1.17-4.67-3.51h1.94c.01,1.33.92,1.99,2.71,1.99.8,0,1.41-.17,1.83-.5.42-.33.63-.75.63-1.25s-.21-.84-.62-1.04-1.26-.46-2.54-.78c-1.28-.32-2.22-.68-2.81-1.08s-.89-1.09-.89-2.09c0-.9.37-1.65,1.1-2.24.73-.59,1.72-.89,2.95-.89,2.85,0,4.31,1.02,4.37,3.05h-1.93c-.07-1.03-.84-1.54-2.31-1.54-.65,0-1.19.12-1.62.37s-.64.6-.64,1.08c0,.42.16.73.49.92.33.19,1.15.44,2.47.76,1.32.32,2.29.69,2.93,1.11s.96,1.16.96,2.19-.39,1.81-1.18,2.47c-.79.65-1.85.98-3.18.98Z"/>
      <path class="cls-1" d="m73.42,15.03h-2.04l-7.88-11.86v11.86h-1.89V0h2.03l7.88,11.86V0h1.9v15.03Z"/>
      <path class="cls-1" d="m80.93,3.91c1.55,0,2.79.5,3.72,1.49.93.99,1.39,2.39,1.39,4.2s-.46,3.2-1.39,4.2c-.93.99-2.17,1.49-3.72,1.49s-2.78-.5-3.71-1.49c-.93-1-1.39-2.39-1.39-4.2s.46-3.21,1.39-4.2c.93-.99,2.16-1.49,3.71-1.49Zm0,9.86c.92,0,1.67-.35,2.25-1.05.57-.7.86-1.74.86-3.12s-.29-2.43-.86-3.13c-.57-.7-1.32-1.05-2.25-1.05s-1.67.35-2.25,1.05c-.57.7-.86,1.75-.86,3.13s.29,2.42.86,3.12c.57.7,1.32,1.05,2.25,1.05Z"/>
      <path class="cls-1" d="m90.14,5.46c.86-1.03,1.9-1.55,3.11-1.55,1.42,0,2.52.5,3.3,1.51.78,1.01,1.17,2.37,1.17,4.09s-.44,3.19-1.31,4.23c-.87,1.04-1.97,1.55-3.3,1.55-1.18,0-2.17-.37-2.97-1.1v.84h-1.94V0h1.94v5.46Zm0,6.99c.83.88,1.78,1.32,2.85,1.32.83,0,1.5-.36,1.99-1.07.49-.71.74-1.78.74-3.19,0-1.34-.23-2.36-.7-3.05s-1.11-1.04-1.95-1.04c-1.07,0-2.05.62-2.93,1.87v5.17Z"/>
      <path class="cls-1" d="m105.53,5.92c-.27-.08-.67-.12-1.18-.12-.98,0-1.83.52-2.53,1.55v7.69h-1.94V4.15h1.94v1.52c.81-1.18,1.76-1.76,2.83-1.76.27,0,.57.03.88.08v1.93Z"/>
      <path class="cls-1" d="m111.5,15.29c-1.6,0-2.88-.5-3.86-1.5-.97-1-1.46-2.4-1.46-4.19s.47-3.17,1.41-4.18c.94-1.01,2.17-1.51,3.69-1.51s2.79.5,3.72,1.49c.93.99,1.39,2.39,1.39,4.2v.46h-8.19c.08,1.26.43,2.19,1.04,2.8.61.61,1.37.91,2.26.91.68,0,1.29-.17,1.83-.52.54-.34.83-.84.86-1.47h2c-.15,1.12-.66,1.99-1.52,2.59s-1.92.91-3.16.91Zm2.85-6.75c-.16-1.05-.51-1.83-1.06-2.35s-1.22-.78-2.01-.78-1.44.26-1.99.77-.91,1.3-1.06,2.35h6.11Z"/>
    </g>
  </g>
</svg>